<svg xmlns="http://www.w3.org/2000/svg" viewBox="0 0 100 100">
  <rect width="100" height="100" rx="22" fill="#7b5cd6"/>
  <path d="M50 12 C68 10 76 34 73 55 C71 72 62 82 50 82 C38 82 29 72 27 55 C24 34 32 10 50 12 Z"
        fill="#c9a24b" stroke="#8a6a25" stroke-width="2"/>
  <ellipse cx="40" cy="42" rx="8" ry="9" fill="#fff" stroke="#00000055"/>
  <ellipse cx="60" cy="42" rx="8" ry="9" fill="#fff" stroke="#00000055"/>
  <circle cx="40" cy="44" r="3.6" fill="#2a2a2a"/>
  <circle cx="60" cy="44" r="3.6" fill="#2a2a2a"/>
  <circle cx="38.8" cy="42.8" r="1.2" fill="#fff"/>
  <circle cx="58.8" cy="42.8" r="1.2" fill="#fff"/>
  <path d="M40 62 Q50 70 60 62" stroke="#5a3a1a" stroke-width="3.5" fill="none" stroke-linecap="round"/>
  <ellipse cx="31" cy="55" rx="4" ry="2.6" fill="#ff787855"/>
  <ellipse cx="69" cy="55" rx="4" ry="2.6" fill="#ff787855"/>
</svg>
